HIERARCHY
ROOT Hip
{
	OFFSET 0 1.131 0.0052
	CHANNELS 6 Xposition Yposition Zposition Xrotation Yrotation Zrotation
	JOINT Abdomen
	{
		OFFSET 0 -0.047353 -0.05
		CHANNELS 3 Xrotation Zrotation Yrotation
		JOINT Chest
		{
			OFFSET 0 0.132153 0.007439
			CHANNELS 3 Xrotation Zrotation Yrotation
			JOINT Neck
			{
				OFFSET 0 0.3078 0.006161
				CHANNELS 3 Xrotation Zrotation Yrotation
				JOINT Head_comp
				{
					OFFSET 0 0.0884 0.013
					CHANNELS 3 Xrotation Yrotation Zrotation
					End Site
					{
						OFFSET -0 0.156 0.0624
					}
				}
			}
			JOINT Left_Collar
			{
				OFFSET 0.02282 0.250342 0.017193
				CHANNELS 2 Yrotation Zrotation
				JOINT Left_Shoulder
				{
					OFFSET 0.15421 0 0
					CHANNELS 3 Xrotation Yrotation Zrotation
					JOINT Left_Forearm
					{
						OFFSET 0.265212 0 0
						CHANNELS 2 Yrotation Xrotation
						JOINT Left_Hand
						{
							OFFSET 0.27571 0 0
							CHANNELS 2 Zrotation Yrotation
							JOINT L1ProxPhalanx
							{
								OFFSET 0.014142 0.001733 0.014142
								CHANNELS 3 Yrotation Zrotation Xrotation
								JOINT L1MidPhalanx
								{
									OFFSET 0.04 0 0
									CHANNELS 1 Zrotation
									JOINT L1DistPhalanx
									{
										OFFSET 0.035 0 0
										CHANNELS 1 Zrotation
										End Site
										{
											OFFSET 0.029 -0 -0
										}
									}
								}
							}
							JOINT L2ProxPhalanx
							{
								OFFSET 0.0821037 0.001578 0.0219996
								CHANNELS 2 Yrotation Zrotation
								JOINT L2MidPhalanx
								{
									OFFSET 0.04 0 0
									CHANNELS 1 Zrotation
									JOINT L2DistPhalanx
									{
										OFFSET 0.028 0 0
										CHANNELS 1 Zrotation
										End Site
										{
											OFFSET 0.02 -0 -0
										}
									}
								}
							}
							JOINT L3ProxPhalanx
							{
								OFFSET 0.083 0 0
								CHANNELS 2 Yrotation Zrotation
								JOINT L3MidPhalanx
								{
									OFFSET 0.053 0 0
									CHANNELS 1 Zrotation
									JOINT L3DistPhalanx
									{
										OFFSET 0.03 0 0
										CHANNELS 1 Zrotation
										End Site
										{
											OFFSET 0.023 -0 -0
										}
									}
								}
							}
							JOINT L4ProxPhalanx
							{
								OFFSET 0.077274 -0.000761 -0.0207055
								CHANNELS 2 Yrotation Zrotation
								JOINT L4MidPhalanx
								{
									OFFSET 0.05 0 0
									CHANNELS 1 Zrotation
									JOINT L4DistPhalanx
									{
										OFFSET 0.03 0 0
										CHANNELS 1 Zrotation
										End Site
										{
											OFFSET 0.023 -0 -0
										}
									}
								}
							}
							JOINT L5ProxPhalanx
							{
								OFFSET 0.0675499 -0.001644 -0.039
								CHANNELS 2 Yrotation Zrotation
								JOINT L5MidPhalanx
								{
									OFFSET 0.04 0 0
									CHANNELS 1 Zrotation
									JOINT L5DistPhalanx
									{
										OFFSET 0.021 0 0
										CHANNELS 1 Zrotation
										End Site
										{
											OFFSET 0.022 -0 -0
										}
									}
								}
							}
						}
					}
				}
			}
			JOINT Right_Collar
			{
				OFFSET -0.02282 0.250342 0.017193
				CHANNELS 2 Yrotation Zrotation
				JOINT Right_Shoulder
				{
					OFFSET -0.15421 0 0
					CHANNELS 3 Xrotation Yrotation Zrotation
					JOINT Right_Forearm
					{
						OFFSET -0.265212 0 0
						CHANNELS 2 Yrotation Xrotation
						JOINT Right_Hand
						{
							OFFSET -0.27571 3e-006 0
							CHANNELS 2 Zrotation Yrotation
							JOINT R1ProxPhalanx
							{
								OFFSET -0.014142 0.001733 0.014142
								CHANNELS 3 Yrotation Zrotation Xrotation
								JOINT R1MidPhalanx
								{
									OFFSET -0.04 0 0
									CHANNELS 1 Zrotation
									JOINT R1DistPhalanx
									{
										OFFSET -0.035 0 0
										CHANNELS 1 Zrotation
										End Site
										{
											OFFSET -0.029 -0 -0
										}
									}
								}
							}
							JOINT R2ProxPhalanx
							{
								OFFSET -0.0821037 0.001578 0.0219996
								CHANNELS 2 Yrotation Zrotation
								JOINT R2MidPhalanx
								{
									OFFSET -0.04 0 0
									CHANNELS 1 Zrotation
									JOINT R2DistPhalanx
									{
										OFFSET -0.028 0 0
										CHANNELS 1 Zrotation
										End Site
										{
											OFFSET -0.02 -0 -0
										}
									}
								}
							}
							JOINT R3ProxPhalanx
							{
								OFFSET -0.083 0 0
								CHANNELS 2 Yrotation Zrotation
								JOINT R3MidPhalanx
								{
									OFFSET -0.053 0 0
									CHANNELS 1 Zrotation
									JOINT R3DistPhalanx
									{
										OFFSET -0.03 0 0
										CHANNELS 1 Zrotation
										End Site
										{
											OFFSET -0.023 -0 -0
										}
									}
								}
							}
							JOINT R4ProxPhalanx
							{
								OFFSET -0.077274 -0.000761 -0.0207055
								CHANNELS 2 Yrotation Zrotation
								JOINT R4MidPhalanx
								{
									OFFSET -0.05 0 0
									CHANNELS 1 Zrotation
									JOINT R4DistPhalanx
									{
										OFFSET -0.03 0 0
										CHANNELS 1 Zrotation
										End Site
										{
											OFFSET -0.023 -0 -0
										}
									}
								}
							}
							JOINT R5ProxPhalanx
							{
								OFFSET -0.0675499 -0.001644 -0.039
								CHANNELS 2 Yrotation Zrotation
								JOINT R5MidPhalanx
								{
									OFFSET -0.04 0 0
									CHANNELS 1 Zrotation
									JOINT R5DistPhalanx
									{
										OFFSET -0.021 0 0
										CHANNELS 1 Zrotation
										End Site
										{
											OFFSET -0.022 -0 -0
										}
									}
								}
							}
						}
					}
				}
			}
		}
	}
	JOINT Left_Thigh
	{
		OFFSET 0.1118 -0.1612 -0.0442
		CHANNELS 3 Xrotation Zrotation Yrotation
		JOINT Left_Shin
		{
			OFFSET 0 -0.477856 0
			CHANNELS 1 Xrotation
			JOINT Left_Foot
			{
				OFFSET 0 -0.431952 0
				CHANNELS 2 Xrotation Zrotation
				JOINT Left_Toe
				{
					OFFSET 0 -0.0442 0.119
					CHANNELS 1 Xrotation
					End Site
					{
						OFFSET -0 -0 0.07
					}
				}
			}
		}
	}
	JOINT Right_Thigh
	{
		OFFSET -0.1118 -0.1612 -0.0442
		CHANNELS 3 Xrotation Zrotation Yrotation
		JOINT Right_Shin
		{
			OFFSET 0 -0.477856 0
			CHANNELS 1 Xrotation
			JOINT Right_Foot
			{
				OFFSET 0 -0.431952 0
				CHANNELS 2 Xrotation Zrotation
				JOINT Right_Toe
				{
					OFFSET 0 -0.0442 0.119
					CHANNELS 1 Xrotation
					End Site
					{
						OFFSET -0 -0 0.07
					}
				}
			}
		}
	}
}
MOTION
Frames: 13
Frame Time: 0.009975
-0.0981976 -0.0601329 0.0474462 -1.64377e-012 4.73955e-008 -5.10968e-006 0 -0 0 0 -0 0 0 -0 0 -0.712781 0.281974 -5.72386e-014 7.93157 -24.7119 11.853 -20.2067 -24.4675 -80.8522 3.35948 15.4001 5.40918 17.2292 -63.3717 158.952 -14.6394 -28.6478 18.6116 -30.3516 3.54976 -1.06129 21.0373 -48.1228 -36.9983 -64.954 40.8989 -25.0388 -79.8348 -58.568 40.6932 0.489535 -165.076 41.159 -3.76577 22.2092 -8.92959 20.1138 23.2245 53.5388 8.81508 -17.6616 2.15419 -17.0165 64.0436 152.708 16.6232 31.1779 -22.9161 27.8097 -2.45704 0.490829 -21.8577 55.502 26.1201 65.5567 -40.7768 38.3006 51.0493 82.3432 -74.3309 9.32556 155.086 -81.7331 0.520569 -0.85665 -0.00778318 0.0240216 -0.544532 0.856691 0 0.531975 -0.856649 -0.00795371 1.21346e-006 -0.531916 0.856691 0 
-0.0982226 -0.0601327 0.0474687 1.23915e-012 4.74914e-008 -5.10967e-006 0 -0 0 0 -0 0 0 -0 0 -0.712782 0.282031 -1.36404e-013 7.93157 -24.7119 11.853 -20.2067 -24.4675 -80.8522 3.35948 15.4001 5.40918 17.2292 -63.3717 158.952 -14.6394 -28.6478 18.6116 -30.3516 3.54976 -1.06129 21.0373 -48.1228 -36.9983 -64.954 40.8989 -25.0388 -79.8348 -58.568 40.6932 0.489535 -165.076 41.159 -3.80181 22.2257 -8.7954 20.0717 23.2932 53.7684 8.68971 -17.6993 2.11243 -17.5475 64.0999 153.653 16.6169 30.9402 -22.9302 27.922 -2.51843 0.431172 -21.8529 55.5713 26.0674 65.5039 -40.8992 38.2348 50.8267 82.592 -74.5319 9.24015 155.198 -82.0747 0.521982 -0.855075 -0.00778996 0.0240216 -0.545946 0.855115 0 0.533388 -0.855073 -0.00796018 0 -0.533329 0.855115 0 
-0.0982518 -0.0601326 0.0475043 -9.22771e-013 4.76487e-008 -5.10967e-006 0 -0 0 0 -0 0 0 -0 0 -0.712783 0.282103 -4.04897e-013 7.93157 -24.7119 11.853 -20.2067 -24.4675 -80.8522 3.35948 15.4001 5.40918 17.2292 -63.3717 158.952 -14.6394 -28.6478 18.6116 -30.3516 3.54976 -1.06129 21.0373 -48.1228 -36.9983 -64.954 40.8989 -25.0388 -79.8348 -58.568 40.6932 0.489535 -165.076 41.159 -3.85103 22.2436 -8.63426 19.9818 23.3841 54.0904 8.53214 -17.7597 2.11868 -18.1723 64.1662 154.661 16.6506 30.5753 -22.969 28.0593 -2.57078 0.395794 -21.9014 55.6177 25.9875 65.4703 -41.0633 38.1874 50.5673 82.8346 -74.8636 9.0784 155.377 -82.598 0.524223 -0.853237 -0.00780658 0.0240216 -0.548186 0.853278 0 0.535629 -0.853236 -0.00797644 0 -0.535569 0.853278 0 
-0.0982857 -0.0601326 0.047553 6.63393e-013 4.7893e-008 -5.10966e-006 0 -0 0 0 -0 0 0 -0 0 -0.712786 0.282189 -6.52046e-013 7.93157 -24.7119 11.853 -20.2067 -24.4675 -80.8522 3.35948 15.4001 5.40918 17.2292 -63.3717 158.952 -14.6394 -28.6478 18.6116 -30.3516 3.54976 -1.06129 21.0373 -48.1228 -36.9983 -64.954 40.8989 -25.0388 -79.8348 -58.568 40.6932 0.489535 -165.076 41.159 -3.91368 22.268 -8.44099 19.8465 23.4839 54.5203 8.34528 -17.8803 2.20282 -19.0652 64.2653 155.945 16.6677 30.066 -23.0501 28.2271 -2.68467 0.569676 -22.0569 55.5618 25.8417 65.352 -41.2758 38.1333 50.4691 82.8981 -75.4309 8.7852 155.667 -83.3697 0.527295 -0.8511 -0.00783267 0.0240216 -0.551258 0.851141 0 0.538701 -0.851099 -0.00800209 0 -0.538642 0.851141 0 
-0.098326 -0.0601326 0.047612 -8.29803e-014 4.81991e-008 -5.10966e-006 0 -0 0 0 -0 0 0 -0 0 -0.71279 0.282282 -1.01302e-012 7.93157 -24.7119 11.853 -20.2067 -24.4675 -80.8522 3.35948 15.4001 5.40918 17.2292 -63.3717 158.952 -14.6394 -28.6478 18.6116 -30.3516 3.54976 -1.06129 21.0373 -48.1228 -36.9983 -64.954 40.8989 -25.0388 -79.8348 -58.568 40.6932 0.489535 -165.076 41.159 -3.99437 22.2837 -8.15021 19.7188 23.5624 55.1095 8.07531 -18.0482 2.28606 -20.1623 64.3894 157.871 16.6478 29.8475 -23.1319 28.4316 -2.593 0.583987 -22.1275 55.5988 25.8059 65.1719 -41.6076 38.018 50.3027 83.0267 -76.1663 8.37143 155.989 -84.4894 0.53101 -0.848564 -0.00786434 0.0240216 -0.554973 0.848605 0 0.542416 -0.848562 -0.00803326 0 -0.542357 0.848605 0 
-0.0983706 -0.0601326 0.0476907 3.01485e-013 4.85584e-008 -5.10965e-006 0 -0 0 0 -0 0 0 -0 0 -0.712795 0.282391 -1.34182e-012 7.93157 -24.7119 11.853 -20.2067 -24.4675 -80.8522 3.35948 15.4001 5.40918 17.2292 -63.3717 158.952 -14.6394 -28.6478 18.6116 -30.3516 3.54976 -1.06129 21.0373 -48.1228 -36.9983 -64.954 40.8989 -25.0388 -79.8348 -58.568 40.6932 0.489535 -165.076 41.159 -4.09821 22.2827 -7.83668 19.5062 23.685 55.8995 7.77182 -18.2363 2.3265 -21.3915 64.5278 160.099 16.6655 29.3563 -23.1292 28.7443 -2.35994 0.421866 -22.1593 55.6335 25.8285 64.9815 -41.7647 38.0297 50.6663 82.5806 -76.8659 7.93945 156.701 -86.0195 0.535966 -0.845749 -0.0079114 0.0240216 -0.559929 0.845791 0 0.547372 -0.845747 -0.00807976 8.2816e-007 -0.547313 0.845791 0 
-0.0984226 -0.0601329 0.0477942 -9.70166e-013 4.90899e-008 -5.10964e-006 0 -0 0 0 -0 0 0 -0 0 -0.712802 0.282516 -2.57261e-012 7.93157 -24.7119 11.853 -20.2067 -24.4675 -80.8522 3.35948 15.4001 5.40918 17.2292 -63.3717 158.952 -14.6394 -28.6478 18.6116 -30.3516 3.54976 -1.06129 21.0373 -48.1228 -36.9983 -64.954 40.8989 -25.0388 -79.8348 -58.568 40.6932 0.489535 -165.076 41.159 -4.23476 22.2783 -7.46629 19.2271 23.8366 56.8928 7.44129 -18.4503 2.34892 -22.7 64.6936 162.32 16.612 27.8316 -23.0147 29.2067 -2.23523 0.457075 -22.1884 55.5596 25.9193 64.8245 -41.6503 38.1292 52.0133 81.198 -77.3401 7.61216 157.784 -87.5636 0.542481 -0.842475 -0.00797656 0.0240216 -0.566444 0.842518 0 0.553887 -0.842473 -0.00814426 1.70755e-006 -0.553829 0.842517 0 
-0.0984857 -0.0601331 0.0479173 9.85108e-013 4.97267e-008 -5.10963e-006 0 -0 0 0 -0 0 0 -0 0 -0.712812 0.282665 -3.63966e-012 7.93157 -24.7119 11.853 -20.2067 -24.4675 -80.8522 3.35948 15.4001 5.40918 17.2292 -63.3717 158.952 -14.6394 -28.6478 18.6116 -30.3516 3.54976 -1.06129 21.0373 -48.1228 -36.9983 -64.954 40.8989 -25.0388 -79.8348 -58.568 40.6932 0.489535 -165.076 41.159 -4.41166 22.2763 -6.94727 18.9741 23.9485 58.0816 7.04064 -18.6647 2.40213 -24.0184 64.8782 164.586 16.4894 25.8906 -22.8389 29.7259 -2.03138 0.62649 -22.2606 55.2625 26.1376 64.7352 -41.5592 38.0043 53.9306 79.4792 -77.3908 7.5018 158.92 -88.6188 0.550234 -0.838506 -0.00805243 0.0240216 -0.574197 0.838549 0 0.56164 -0.838504 -0.00821935 1.25571e-006 -0.561581 0.838549 0 
-0.0985592 -0.0601334 0.0480548 -6.65069e-013 5.04805e-008 -5.10962e-006 0 -0 0 0 -0 0 0 -0 0 -0.712822 0.282851 -4.76474e-012 7.93157 -24.7119 11.853 -20.2067 -24.4675 -80.8522 3.35948 15.4001 5.40918 17.2292 -63.3717 158.952 -14.6394 -28.6478 18.6116 -30.3516 3.54976 -1.06129 21.0373 -48.1228 -36.9983 -64.954 40.8989 -25.0388 -79.8348 -58.568 40.6932 0.489535 -165.076 41.159 -4.60964 22.2692 -6.39718 18.6777 24.0902 59.4657 6.62745 -18.9124 2.351 -25.4677 65.108 167.004 16.3588 24.4703 -22.5123 30.4282 -1.77627 0.941168 -22.3844 54.7559 26.3357 64.6522 -41.4542 37.715 55.6695 78.2201 -76.7888 7.69525 160.011 -89.1695 0.558898 -0.833875 -0.00813405 0.0240216 -0.58286 0.83392 0 0.570304 -0.833874 -0.00830004 8.15354e-007 -0.570244 0.83392 0 
-0.0986377 -0.0601338 0.0482049 6.60711e-013 5.12776e-008 -5.1096e-006 0 -0 0 0 -0 0 0 -0 0 -0.712833 0.283077 -6.4663e-012 7.93157 -24.7119 11.853 -20.2067 -24.4675 -80.8522 3.35948 15.4001 5.40918 17.2292 -63.3717 158.952 -14.6394 -28.6478 18.6116 -30.3516 3.54976 -1.06129 21.0373 -48.1228 -36.9983 -64.954 40.8989 -25.0388 -79.8348 -58.568 40.6932 0.489535 -165.076 41.159 -4.83086 22.2755 -5.85492 18.3486 24.1986 61.0605 6.26619 -19.3095 1.98461 -24.6111 65.797 167.119 16.1331 24.5239 -21.8164 31.4048 -1.46043 1.35445 -22.3388 54.1089 26.5703 64.5833 -41.1366 37.3143 56.7941 77.9935 -75.271 8.10268 160.803 -90.4189 0.568352 -0.828928 -0.00822258 0.0240216 -0.592315 0.828974 0 0.579758 -0.828926 -0.00838759 1.70755e-006 -0.579699 0.828973 0 
-0.0987087 -0.0601345 0.0483746 1.64982e-013 5.21758e-008 -5.10959e-006 0 -0 0 0 -0 0 0 -0 0 -0.712846 0.283315 -6.46368e-012 7.93157 -24.7119 11.853 -20.2067 -24.4675 -80.8522 3.35948 15.4001 5.40918 17.2292 -63.3717 158.952 -14.6394 -28.6478 18.6116 -30.3516 3.54976 -1.06129 21.0373 -48.1228 -36.9983 -64.954 40.8989 -25.0388 -79.8348 -58.568 40.6932 0.489535 -165.076 41.159 -5.08133 22.3064 -5.36663 17.9386 24.2567 62.7874 5.99302 -19.6584 1.75568 -21.699 66.7892 164.387 15.4319 26.0483 -21.0978 32.3251 -1.01857 1.93945 -22.2352 53.1115 27.1517 64.5126 -40.9207 36.4426 58.3025 77.8375 -73.346 8.38456 161.481 -92.0296 0.579039 -0.824456 -0.008332 0.0240216 -0.603 0.824503 0 0.590445 -0.824454 -0.00849612 9.00731e-007 -0.590384 0.824503 0 
-0.0987751 -0.0601355 0.0485599 4.83729e-013 5.31945e-008 -5.10957e-006 0 -0 0 0 -0 0 0 -0 0 -0.712861 0.28351 -6.41385e-012 7.93157 -24.7119 11.853 -20.2067 -24.4675 -80.8522 3.35948 15.4001 5.40918 17.2292 -63.3717 158.952 -14.6394 -28.6478 18.6116 -30.3516 3.54976 -1.06129 21.0373 -48.1228 -36.9983 -64.954 40.8989 -25.0388 -79.8348 -58.568 40.6932 0.489535 -165.076 41.159 -5.35767 22.3259 -4.87148 17.5105 24.3269 64.535 5.74286 -19.8511 1.91247 -19.6874 67.59 161.284 14.8508 27.1145 -20.5385 33.175 -0.500609 2.65352 -22.134 51.8744 28.0792 64.38 -40.9499 35.0245 60.3873 77.4536 -71.3154 8.37926 162.334 -92.8223 0.590705 -0.820276 -0.00845679 0.0240216 -0.614667 0.820325 0 0.602111 -0.820274 -0.00862008 0 -0.60205 0.820325 0 
-0.0988523 -0.0601365 0.0487566 -1.22069e-013 5.42647e-008 -5.10956e-006 0 -0 0 0 -0 0 0 -0 0 -0.712878 0.283695 -7.57076e-012 7.93157 -24.7119 11.853 -20.2067 -24.4675 -80.8522 3.35948 15.4001 5.40918 17.2292 -63.3717 158.952 -14.6394 -28.6478 18.6116 -30.3516 3.54976 -1.06129 21.0373 -48.1228 -36.9983 -64.954 40.8989 -25.0388 -79.8348 -58.568 40.6932 0.489535 -165.076 41.159 -5.66449 22.3266 -4.23009 17.1499 24.3914 66.362 5.4356 -19.9608 1.95074 -17.6514 68.0953 158.179 14.3305 27.669 -19.7491 34.0728 0.0680039 3.38865 -21.8537 50.5329 29.1228 64.3166 -40.7016 33.3207 62.6144 77.3337 -68.3916 8.11445 163.392 -93.1822 0.603094 -0.815413 -0.00858296 0.0240216 -0.627055 0.815463 0 0.6145 -0.815411 -0.00874528 7.98278e-007 -0.614439 0.815463 0 
